<?xml version="1.0" encoding="utf-8"?>
<!-- Generated with PSSVG 0.2.10 https://github.com/StartAutomating/PSSVG -->
<svg viewBox="0 0 200 200" xmlns:xlink="http://www.w3.org/1999/xlink" xmlns="http://www.w3.org/2000/svg">
  <style type="text/css">@import url('https://fonts.googleapis.com/css?family=Noto Sans')</style>
  <symbol id="psChevron" viewBox="0 0 100 100" transform-origin="50% 50%">
    <polygon points="40,20 45,20 60,50 35,80 32.5,80 55,50" transform-origin="50% 50%" />
  </symbol>
  <symbol id="gitHubIcon" viewBox="0 0 24 24" transform-origin="50% 50%">
    <svg xmlns="http://www.w3.org/2000/svg" width="24" height="24" viewBox="0 0 24 24" fill="none" stroke="#4488FF" stroke-width="1.5" stroke-linecap="round" stroke-linejoin="round" class="foreground-stroke">
      <path d="M9 19c-5 1.5-5-2.5-7-3m14 6v-3.87a3.37 3.37 0 0 0-.94-2.61c3.14-.35 6.44-1.54 6.44-7A5.44 5.44 0 0 0 20 4.77 5.07 5.07 0 0 0 19.91 1S18.73.65 16 2.48a13.38 13.38 0 0 0-7 0C6.27.65 5.09 1 5.09 1A5.07 5.07 0 0 0 5 4.77a5.44 5.44 0 0 0-1.5 3.78c0 5.42 3.3 6.61 6.44 7A3.37 3.37 0 0 0 9 18.13V22" />
    </svg>
  </symbol>
  <symbol id="atIcon" viewBox="0 0 24 24" transform-origin="50% 50%">
    <svg xmlns="http://www.w3.org/2000/svg" width="24" height="24" viewBox="0 0 24 24" fill="none" stroke="#4488FF" stroke-width="2" stroke-linecap="round" stroke-linejoin="round" class="foreground-stroke">
      <circle cx="12" cy="12" r="4" />
      <path d="M16 8v5a3 3 0 0 0 6 0v-1a10 10 0 1 0-3.92 7.94" />
    </svg>
  </symbol>
  <circle cx="50%" cy="50%" r="42%" fill="transparent" stroke="#4488FF" class="foreground-stroke" stroke-width="0.5%" />
  <ellipse cx="50%" cy="50%" rx="23%" ry="42%" fill="transparent" stroke="#4488FF" class="foreground-stroke" stroke-width="0.5%" />
  <ellipse cx="50%" cy="50%" rx="16%" ry="42%" opacity="0.9" fill="transparent" stroke="#4488FF" class="foreground-stroke" stroke-width="0.5%" />
  <ellipse cx="50%" cy="50%" rx="15%" ry="42%" opacity="0.8" fill="transparent" stroke="#4488FF" class="foreground-stroke" stroke-width="0.5%" />
  <ellipse cx="50%" cy="50%" rx="42%" ry="23%" fill="transparent" stroke="#4488FF" class="foreground-stroke" stroke-width="0.5%" />
  <ellipse cx="50%" cy="50%" rx="42%" ry="16%" opacity="0.9" fill="transparent" stroke="#4488FF" class="foreground-stroke" stroke-width="0.5%" />
  <ellipse cx="50%" cy="50%" rx="42%" ry="15%" opacity="0.8" fill="transparent" stroke="#4488FF" class="foreground-stroke" stroke-width="0.5%" />
  <use href="#psChevron" y="44%" height="12%" fill="#4488FF" class="foreground-fill" />
  <use href="#atIcon" y="44%" height="12%" x="-6%" stroke="#4488FF" class="foreground-stroke" stroke-width="0.5%" />
  <use href="#gitHubIcon" y="44%" height="12%" x="6%" stroke="#4488FF" class="foreground-stroke" stroke-width="0.5%" />
</svg>
